<svg width="1728" height="390" viewBox="0 0 1728 390" fill="none" xmlns="http://www.w3.org/2000/svg">
<g filter="url(#filter0_f_20_147)">
<path d="M50 47.9831C50 47.9831 85.8637 5.05654 168.308 6.18966C255.877 7.39323 281.77 47.9831 362.032 47.9831C452.818 47.9831 463.434 2.81996 555.399 6.18966C640.054 9.29153 648.797 44.4128 733.397 47.9831C826.551 51.9144 826.268 4.34284 919.615 6.18966C1008.67 7.95162 1020.66 47.9828 1109.77 47.9829C1214.49 47.983 1222.83 -3.38571 1323.15 6.18966C1403.47 13.8565 1404.36 47.9829 1485.78 47.9829C1588.71 47.9828 1601.06 6.18962 1703.45 6.18966C1792.45 6.1897 1860 47.9829 1860 47.9829V356.675H50V47.9831Z" fill="#FF7E00"/>
<path d="M-60 47.8122C-60 47.8122 -24.1363 4.88564 58.3077 6.01876C145.877 7.22233 171.77 47.8122 252.032 47.8122C342.818 47.8122 353.434 2.64906 445.399 6.01876C530.054 9.12063 538.797 44.2419 623.397 47.8122C716.551 51.7435 716.268 4.17194 809.615 6.01876C898.673 7.78073 910.655 47.8119 999.765 47.812C1104.49 47.8121 1112.83 -3.55661 1213.15 6.01876C1293.47 13.6856 1294.36 47.812 1375.78 47.812C1478.71 47.8119 1491.06 6.01872 1593.45 6.01876C1682.45 6.01881 1750 47.812 1750 47.812V356.504H-60V47.8122Z" fill="#56FB7B" fill-opacity="0.5"/>
<path d="M12 46.9831C12 46.9831 47.8637 4.05654 130.308 5.18966C217.877 6.39323 243.77 46.9831 324.032 46.9831C414.818 46.9831 425.434 1.81996 517.399 5.18966C602.054 8.29153 610.797 43.4128 695.397 46.9831C788.551 50.9144 788.268 3.34284 881.615 5.18966C970.673 6.95162 982.655 46.9828 1071.77 46.9829C1176.49 46.983 1184.83 -4.38571 1285.15 5.18966C1365.47 12.8565 1366.36 46.9829 1447.78 46.9829C1550.71 46.9828 1563.06 5.18962 1665.45 5.18966C1754.45 5.1897 1822 46.9829 1822 46.9829V355.675H12V46.9831Z" fill="#C3E956" fill-opacity="0.5"/>
<path d="M-73 77.3084C-73 77.3084 -37.1363 34.3818 45.3077 35.5149C132.877 36.7185 158.77 77.3084 239.032 77.3084C329.818 77.3084 340.434 32.1452 432.399 35.5149C517.054 38.6168 525.797 73.7381 610.396 77.3084C703.551 81.2397 703.268 33.6681 796.615 35.5149C885.673 37.2769 897.655 77.3081 986.765 77.3082C1091.49 77.3083 1099.83 25.9396 1200.15 35.5149C1280.47 43.1818 1281.36 77.3082 1362.78 77.3081C1465.71 77.3081 1478.06 35.5149 1580.45 35.5149C1669.45 35.515 1737 77.3081 1737 77.3081V386H-73V77.3084Z" fill="#131936"/>
</g>
<defs>
<filter id="filter0_f_20_147" x="-77" y="0" width="1941" height="390" filterUnits="userSpaceOnUse" color-interpolation-filters="sRGB">
<feFlood flood-opacity="0" result="BackgroundImageFix"/>
<feBlend mode="normal" in="SourceGraphic" in2="BackgroundImageFix" result="shape"/>
<feGaussianBlur stdDeviation="2" result="effect1_foregroundBlur_20_147"/>
</filter>
</defs>
</svg>
